<svg xmlns="http://www.w3.org/2000/svg" width="256" height="256" viewBox="0 0 256 256">
<!-- SVG created with Arrow, by QuiverAI (https://quiver.ai) -->
  <path d="m219.1 60.24-55.91 23.95 15.69 7.92c-22.41 27.72-46.9 51.77-83.97 60.92-6.08 1.54-12.23 1.68-18.58 0.88-19.22-2.18-30.58-17.07-30.2-35.76 2.18 10.46 5.91 17.86 12.05 21.68-12.84-14.5-10.2-36.09 2.33-57.43 7.29-12.39 15.49-22.07 26.02-31.92-25.52 21.44-50.42 51.61-50.02 82.43 0.29 22.85 14.3 40.02 42.39 42.1 37.23 1.84 80.1-20.12 120.9-66.4l13.6 12.18 5.66-60.55z" fill="#D0AC3A"/>
  <path d="m177.6 48.61-10.36-16.88c-1.41-2.42-3.4-3.24-5.97-3.7l-28.19-4.82c-3.85-0.53-5.3-0.1-7.94 2.32l-55.36 61.6c-1.78 1.99-2.7 3.78-3.45 6.43l-5.92 23.05c-0.66 2.75 0.32 4.3 3.05 5.03l47.71 10.34c4.07 0.63 6.82-1.26 8.81-4.31l57.33-72.56c1.99-2.42 1.99-4.3 0.29-6.5zm-40.16 4.46c-0.53 0.64-1.45 1.17-2.51 1.42l-36.75 9.92 9.86-11.34c0.92-1.06 1.89-1.7 3.44-2.23l37.35-8.68-11.39 10.91zm-23.04 70.24-0.73 0.3-6.33-19.67c-0.78-2.42-2.23-3.48-4.71-4.22l-28.42-7.41 0.26-0.63 29.46 3.73c3.15 0.45 4.93-0.62 6.81-2.82l51.09-56.41 0.53 0.26-47.58 60.03c-1.78 2.3-2.85 4.29-2.4 7.34l2.02 19.5z" fill="#D0AC3A"/>
  <path d="m24.78 197.7c-10.87 0-17.78 8.41-17.78 16.55v0.08c0 8.97 7.21 17.67 17.7 17.67 10.87 0 18.47-8.02 18.47-17.1v-0.1c0-8.88-7.41-17.1-18.39-17.1zm10.16 16.63c0 6.57-4.6 10.91-10.31 10.91-6.39 0-10.32-5.19-10.32-10.81v-0.1c0-6.09 4.37-10.63 10.39-10.63 6.62 0 10.24 5.57 10.24 10.55v0.08z" fill="#2D2D2D"/>
  <path d="m54.39 209.7v-4.01h-6.73v25.61h7.2v-10.19c0-6.21 2.9-8.53 7.91-8.53h0.2v-7.13c-4.35-0.2-6.89 1.25-8.58 4.25z" fill="#2D2D2D"/>
  <path d="m78.41 205.2c-8.58 0-13.23 6.46-13.23 13.43v0.1c0 6.92 5.3 13.32 13.13 13.32 8.61 0 13.67-6.45 14.23-12.91v-0.97c-0.53-6.92-6.03-12.97-14.13-12.97zm7.11 13.53c0 4.47-2.59 7.52-6.96 7.52-4.14 0-6.37-3.61-6.37-7.62v-0.1c0-4.01 2.23-7.48 6.27-7.48 4.35 0 7.06 3.61 7.06 7.58v0.1z" fill="#2D2D2D"/>
  <path d="m125.8 209.7v-0.1c0-7.84-5.75-11.4-12.86-11.4h-16v33.4h7.68v-9.37h7.08l6.87 9.67h8.32l-7.79-11c4.12-1.69 6.7-5.7 6.7-11.2zm-7.4 0c0 4.17-3.1 5.35-6.55 5.35h-6.94v-11.64h6.79c4.37 0 6.7 2.09 6.7 6.19v0.1z" fill="#2D2D2D"/>
  <path d="m142.4 205.2c-8.58 0-13.8 6.46-13.8 13.43v0.1c0 6.92 5.29 13.32 13.7 13.32 8.58 0 13.54-7.07 13.54-13.42v-0.46c-0.41-6.92-5.81-12.97-13.44-12.97zm6.34 13.53c0 4.47-2.59 7.52-6.96 7.52-4.14 0-6.12-3.61-6.12-7.62v-0.1c0-4.01 1.98-7.48 6.23-7.48 4.35 0 6.85 3.61 6.85 7.58v0.1z" fill="#2D2D2D"/>
  <path d="m178.1 218.1c0 5.18-1.88 7.32-5.45 7.32s-5.17-2.14-5.17-6.96v-13.18h-7.69v15.5c0 6.92 4.06 11.5 10.55 11.5 4.1 0 6.53-1.89 8.07-4.18v3.48h7.06v-26.3h-7.37v12.82z" fill="#2D2D2D"/>
  <path d="m205.4 205c-4.1 0-6.53 1.89-8.07 4.17v-3.48h-6.44v25.91h7.36v-13.48c0-4.2 2.18-6.34 5.47-6.34 3.4 0 5.38 2.14 5.38 6.34v13.48h6.73v-15.49c0-6.53-3.62-11.11-10.43-11.11z" fill="#2D2D2D"/>
  <path d="m241 196.2v12.51c-2.18-2.09-4.36-3.57-8.61-3.57-7.11 0-12.17 5.25-12.17 13.33v0.1c0 8.08 5.7 13.62 12.17 13.62 4.05 0 6.48-1.79 8.31-3.78v3.18h7.29v-35.39h-6.99zm0.1 22.37c0 4.62-3.1 7.62-6.8 7.62s-6.8-3.05-6.8-7.62v-0.1c0-4.77 3.05-7.48 6.8-7.48 3.7 0 6.8 3.02 6.8 7.48v0.1z" fill="#2D2D2D"/>
</svg>